<svg xmlns="http://www.w3.org/2000/svg" version="1.1" xmlns:xlink="http://www.w3.org/1999/xlink" width="200" height="200"><svg xmlns="http://www.w3.org/2000/svg" version="1.1" xmlns:xlink="http://www.w3.org/1999/xlink" viewBox="0 0 200 200"><rect width="200" height="200" fill="url('#gradient')"></rect><defs><linearGradient id="SvgjsLinearGradient1001" gradientTransform="rotate(217 0.5 0.5)"><stop offset="0%" stop-color="#73b1d8"></stop><stop offset="100%" stop-color="#d9e241"></stop></linearGradient></defs><g><g fill="#ffffff" transform="matrix(1.9331697187087031,0,0,1.9331697187087031,-2.0740951445950273,113.55323824676361)" stroke="#0e5278" stroke-width="0.95"><path d="M5.75 0L1.07 0L1.07-14.22L5.65-14.22Q7.54-14.22 9.04-13.36Q10.55-12.51 11.39-10.95Q12.24-9.39 12.25-7.46L12.25-7.46L12.25-6.81Q12.25-4.85 11.42-3.31Q10.60-1.76 9.10-0.88Q7.60-0.01 5.75 0L5.75 0ZM5.65-11.57L4.50-11.57L4.50-2.64L5.69-2.64Q7.17-2.64 7.96-3.69Q8.75-4.74 8.75-6.81L8.75-6.81L8.75-7.42Q8.75-9.48 7.96-10.53Q7.17-11.57 5.65-11.57L5.65-11.57ZM20.30-10.64L20.24-7.59L19.16-7.67Q17.61-7.67 17.17-6.69L17.17-6.69L17.17 0L13.88 0L13.88-10.57L16.96-10.57L17.07-9.21Q17.90-10.76 19.38-10.76L19.38-10.76Q19.91-10.76 20.30-10.64L20.30-10.64ZM26.36 0.20L26.36 0.20Q23.93 0.20 22.42-1.25Q20.92-2.71 20.92-5.03L20.92-5.03L20.92-5.30Q20.92-6.92 21.52-8.16Q22.12-9.40 23.27-10.08Q24.42-10.76 26.01-10.76L26.01-10.76Q28.23-10.76 29.52-9.38Q30.81-8.00 30.81-5.53L30.81-5.53L30.81-4.25L24.27-4.25Q24.44-3.36 25.04-2.85Q25.63-2.34 26.58-2.34L26.58-2.34Q28.14-2.34 29.02-3.44L29.02-3.44L30.53-1.66Q29.91-0.81 28.78-0.31Q27.66 0.20 26.36 0.20ZM25.99-8.22L25.99-8.22Q24.54-8.22 24.27-6.31L24.27-6.31L27.59-6.31L27.59-6.56Q27.61-7.35 27.19-7.79Q26.77-8.22 25.99-8.22ZM41.38 0L38.09 0Q37.91-0.32 37.77-0.95L37.77-0.95Q36.87 0.20 35.23 0.20L35.23 0.20Q33.74 0.20 32.70-0.71Q31.65-1.61 31.65-2.98L31.65-2.98Q31.65-4.70 32.92-5.58Q34.19-6.46 36.61-6.46L36.61-6.46L37.63-6.46L37.63-7.01Q37.63-8.47 36.37-8.47L36.37-8.47Q35.20-8.47 35.20-7.31L35.20-7.31L31.90-7.31Q31.90-8.85 33.21-9.80Q34.51-10.76 36.53-10.76Q38.55-10.76 39.73-9.78Q40.90-8.79 40.93-7.07L40.93-7.07L40.93-2.39Q40.95-0.94 41.38-0.17L41.38-0.17L41.38 0ZM36.03-2.15L36.03-2.15Q36.64-2.15 37.05-2.41Q37.45-2.68 37.63-3.01L37.63-3.01L37.63-4.70L36.67-4.70Q34.95-4.70 34.95-3.15L34.95-3.15Q34.95-2.71 35.25-2.43Q35.56-2.15 36.03-2.15ZM42.77-10.57L45.86-10.57L45.97-9.33Q47.09-10.76 48.98-10.76L48.98-10.76Q50.99-10.76 51.69-9.17L51.69-9.17Q52.76-10.76 54.79-10.76L54.79-10.76Q58.01-10.76 58.10-6.88L58.10-6.88L58.10 0L54.79 0L54.79-6.67Q54.79-7.48 54.52-7.85Q54.25-8.22 53.53-8.22L53.53-8.22Q52.55-8.22 52.07-7.35L52.07-7.35L52.08-7.22L52.08 0L48.78 0L48.78-6.65Q48.78-7.48 48.52-7.85Q48.25-8.22 47.51-8.22L47.51-8.22Q46.56-8.22 46.06-7.35L46.06-7.35L46.06 0L42.77 0L42.77-10.57ZM72.00-14.22L72.00 0L68.59 0L63.55-8.85L63.55 0L60.13 0L60.13-14.22L63.55-14.22L68.58-5.37L68.58-14.22L72.00-14.22ZM73.61-4.82L73.60-5.38Q73.60-6.96 74.22-8.20Q74.83-9.43 75.99-10.10Q77.14-10.76 78.69-10.76L78.69-10.76Q81.06-10.76 82.43-9.29Q83.80-7.82 83.80-5.29L83.80-5.29L83.80-5.18Q83.80-2.71 82.43-1.25Q81.05 0.20 78.71 0.20L78.71 0.20Q76.46 0.20 75.09-1.16Q73.72-2.51 73.61-4.82L73.61-4.82ZM76.90-5.77L76.89-5.18Q76.89-3.71 77.35-3.03Q77.81-2.34 78.71-2.34L78.71-2.34Q80.47-2.34 80.51-5.05L80.51-5.05L80.51-5.38Q80.51-8.22 78.69-8.22L78.69-8.22Q77.04-8.22 76.90-5.77L76.90-5.77ZM87.68-10.57L89.32-3.92L90.99-10.57L94.45-10.57L91.01 0L87.65 0L84.20-10.57L87.68-10.57ZM104.53 0L101.24 0Q101.06-0.32 100.93-0.95L100.93-0.95Q100.02 0.20 98.39 0.20L98.39 0.20Q96.89 0.20 95.85-0.71Q94.80-1.61 94.80-2.98L94.80-2.98Q94.80-4.70 96.07-5.58Q97.34-6.46 99.77-6.46L99.77-6.46L100.78-6.46L100.78-7.01Q100.78-8.47 99.52-8.47L99.52-8.47Q98.35-8.47 98.35-7.31L98.35-7.31L95.06-7.31Q95.06-8.85 96.36-9.80Q97.67-10.76 99.69-10.76Q101.71-10.76 102.88-9.78Q104.05-8.79 104.08-7.07L104.08-7.07L104.08-2.39Q104.10-0.94 104.53-0.17L104.53-0.17L104.53 0ZM99.18-2.15L99.18-2.15Q99.79-2.15 100.20-2.41Q100.61-2.68 100.78-3.01L100.78-3.01L100.78-4.70L99.82-4.70Q98.11-4.70 98.11-3.15L98.11-3.15Q98.11-2.71 98.41-2.43Q98.71-2.15 99.18-2.15Z"></path></g></g></svg><style>@media (prefers-color-scheme: light) { :root { filter: none; } }
@media (prefers-color-scheme: dark) { :root { filter: none; } }
</style></svg>